<?xml version="1.0" encoding="UTF-8" standalone="no"?>
<!DOCTYPE svg PUBLIC "-//W3C//DTD SVG 1.1//EN"
 "http://www.w3.org/Graphics/SVG/1.1/DTD/svg11.dtd">
<!-- Generated by graphviz version 2.40.1 (20161225.0304)
 -->
<!-- Title: models_diagram Pages: 1 -->
<svg width="626pt" height="618pt"
 viewBox="0.00 0.00 626.00 618.00" xmlns="http://www.w3.org/2000/svg" xmlns:xlink="http://www.w3.org/1999/xlink">
<g id="graph0" class="graph" transform="scale(1 1) rotate(0) translate(36 582)">
<title>models_diagram</title>
<polygon fill="#ffffff" stroke="transparent" points="-36,36 -36,-582 590,-582 590,36 -36,36"/>
<!-- Box -->
<g id="node1" class="node">
<title>Box</title>
<polygon fill="#add8e6" stroke="transparent" points="172,-239 172,-261 305,-261 305,-239 172,-239"/>
<polygon fill="none" stroke="#000000" points="172,-239 172,-261 305,-261 305,-239 172,-239"/>
<text text-anchor="start" x="230.1655" y="-247" font-family="Times,serif" font-size="10.00" fill="#000000">Box</text>
<polygon fill="none" stroke="#000000" points="172,-217 172,-239 305,-239 305,-217 172,-217"/>
<text text-anchor="start" x="177" y="-225" font-family="Times,serif" font-size="10.00" fill="#000000">id: NUMBER</text>
<polygon fill="none" stroke="#000000" points="172,-195 172,-217 305,-217 305,-195 172,-195"/>
<text text-anchor="start" x="177" y="-203" font-family="Times,serif" font-size="10.00" fill="#000000">shopify_handle: STRING</text>
<polygon fill="none" stroke="#000000" points="172,-173 172,-195 305,-195 305,-173 172,-173"/>
<text text-anchor="start" x="177" y="-181" font-family="Times,serif" font-size="10.00" fill="#000000">shopify_title: STRING</text>
<polygon fill="none" stroke="#000000" points="172,-151 172,-173 305,-173 305,-151 172,-151"/>
<text text-anchor="start" x="177" y="-159" font-family="Times,serif" font-size="10.00" fill="#000000">shopify_id: NUMBER</text>
<polygon fill="none" stroke="#000000" points="172,-129 172,-151 305,-151 305,-129 172,-129"/>
<text text-anchor="start" x="177" y="-137" font-family="Times,serif" font-size="10.00" fill="#000000">shopify_gid: STRING</text>
<polygon fill="none" stroke="#000000" points="172,-107 172,-129 305,-129 305,-107 172,-107"/>
<text text-anchor="start" x="176.703" y="-115" font-family="Times,serif" font-size="10.00" fill="#000000">shopify_variant_id: NUMBER</text>
<polygon fill="none" stroke="#000000" points="172,-85 172,-107 305,-107 305,-85 172,-85"/>
<text text-anchor="start" x="177" y="-93" font-family="Times,serif" font-size="10.00" fill="#000000">shopify_price: NUMBER</text>
<polygon fill="none" stroke="#000000" points="172,-63 172,-85 305,-85 305,-63 172,-63"/>
<text text-anchor="start" x="177" y="-71" font-family="Times,serif" font-size="10.00" fill="#000000">delivered: DATE</text>
<polygon fill="none" stroke="#000000" points="172,-41 172,-63 305,-63 305,-41 172,-41"/>
<text text-anchor="start" x="177" y="-49" font-family="Times,serif" font-size="10.00" fill="#000000">createdAt: DATE</text>
<polygon fill="none" stroke="#000000" points="172,-19 172,-41 305,-41 305,-19 172,-19"/>
<text text-anchor="start" x="177" y="-27" font-family="Times,serif" font-size="10.00" fill="#000000">updatedAt: DATE</text>
</g>
<!-- BoxProduct -->
<g id="node2" class="node">
<title>BoxProduct</title>
<polygon fill="#add8e6" stroke="transparent" points="39,-88 39,-110 138,-110 138,-88 39,-88"/>
<polygon fill="none" stroke="#000000" points="39,-88 39,-110 138,-110 138,-88 39,-88"/>
<text text-anchor="start" x="64.6125" y="-96" font-family="Times,serif" font-size="10.00" fill="#000000">BoxProduct</text>
<polygon fill="none" stroke="#000000" points="39,-66 39,-88 138,-88 138,-66 39,-66"/>
<text text-anchor="start" x="44" y="-74" font-family="Times,serif" font-size="10.00" fill="#000000">id: NUMBER</text>
<polygon fill="none" stroke="#000000" points="39,-44 39,-66 138,-66 138,-44 39,-44"/>
<text text-anchor="start" x="43.926" y="-52" font-family="Times,serif" font-size="10.00" fill="#000000">isAddOn: BOOLEAN</text>
<polygon fill="none" stroke="#000000" points="39,-22 39,-44 138,-44 138,-22 39,-22"/>
<text text-anchor="start" x="44" y="-30" font-family="Times,serif" font-size="10.00" fill="#000000">createdAt: DATE</text>
<polygon fill="none" stroke="#000000" points="39,0 39,-22 138,-22 138,0 39,0"/>
<text text-anchor="start" x="44" y="-8" font-family="Times,serif" font-size="10.00" fill="#000000">updatedAt: DATE</text>
</g>
<!-- Order -->
<g id="node3" class="node">
<title>Order</title>
<polygon fill="#add8e6" stroke="transparent" points="343,-255 343,-277 486,-277 486,-255 343,-255"/>
<polygon fill="none" stroke="#000000" points="343,-255 343,-277 486,-277 486,-255 343,-255"/>
<text text-anchor="start" x="402.842" y="-263" font-family="Times,serif" font-size="10.00" fill="#000000">Order</text>
<polygon fill="none" stroke="#000000" points="343,-233 343,-255 486,-255 486,-233 343,-233"/>
<text text-anchor="start" x="348" y="-241" font-family="Times,serif" font-size="10.00" fill="#000000">id: NUMBER</text>
<polygon fill="none" stroke="#000000" points="343,-211 343,-233 486,-233 486,-211 343,-211"/>
<text text-anchor="start" x="348" y="-219" font-family="Times,serif" font-size="10.00" fill="#000000">shopify_name: STRING</text>
<polygon fill="none" stroke="#000000" points="343,-189 343,-211 486,-211 486,-189 343,-189"/>
<text text-anchor="start" x="348" y="-197" font-family="Times,serif" font-size="10.00" fill="#000000">shopify_order_id: NUMBER</text>
<polygon fill="none" stroke="#000000" points="343,-167 343,-189 486,-189 486,-167 343,-167"/>
<text text-anchor="start" x="348" y="-175" font-family="Times,serif" font-size="10.00" fill="#000000">shopify_product_id: NUMBER</text>
<polygon fill="none" stroke="#000000" points="343,-145 343,-167 486,-167 486,-145 343,-145"/>
<text text-anchor="start" x="347.699" y="-153" font-family="Times,serif" font-size="10.00" fill="#000000">shopify_line_item_id: NUMBER</text>
<polygon fill="none" stroke="#000000" points="343,-123 343,-145 486,-145 486,-123 343,-123"/>
<text text-anchor="start" x="348" y="-131" font-family="Times,serif" font-size="10.00" fill="#000000">shopify_customer_id: NUMBER</text>
<polygon fill="none" stroke="#000000" points="343,-101 343,-123 486,-123 486,-101 343,-101"/>
<text text-anchor="start" x="348" y="-109" font-family="Times,serif" font-size="10.00" fill="#000000">delivered: DATE</text>
<polygon fill="none" stroke="#000000" points="343,-79 343,-101 486,-101 486,-79 343,-79"/>
<text text-anchor="start" x="348" y="-87" font-family="Times,serif" font-size="10.00" fill="#000000">createdAt: DATE</text>
<polygon fill="none" stroke="#000000" points="343,-57 343,-79 486,-79 486,-57 343,-57"/>
<text text-anchor="start" x="348" y="-65" font-family="Times,serif" font-size="10.00" fill="#000000">updatedAt: DATE</text>
</g>
<!-- Product -->
<g id="node4" class="node">
<title>Product</title>
<polygon fill="#add8e6" stroke="transparent" points="172,-524 172,-546 305,-546 305,-524 172,-524"/>
<polygon fill="none" stroke="#000000" points="172,-524 172,-546 305,-546 305,-524 172,-524"/>
<text text-anchor="start" x="222.947" y="-532" font-family="Times,serif" font-size="10.00" fill="#000000">Product</text>
<polygon fill="none" stroke="#000000" points="172,-502 172,-524 305,-524 305,-502 172,-502"/>
<text text-anchor="start" x="177" y="-510" font-family="Times,serif" font-size="10.00" fill="#000000">id: NUMBER</text>
<polygon fill="none" stroke="#000000" points="172,-480 172,-502 305,-502 305,-480 172,-480"/>
<text text-anchor="start" x="177" y="-488" font-family="Times,serif" font-size="10.00" fill="#000000">title: STRING</text>
<polygon fill="none" stroke="#000000" points="172,-458 172,-480 305,-480 305,-458 172,-458"/>
<text text-anchor="start" x="177" y="-466" font-family="Times,serif" font-size="10.00" fill="#000000">shopify_id: NUMBER</text>
<polygon fill="none" stroke="#000000" points="172,-436 172,-458 305,-458 305,-436 172,-436"/>
<text text-anchor="start" x="177" y="-444" font-family="Times,serif" font-size="10.00" fill="#000000">shopify_gid: STRING</text>
<polygon fill="none" stroke="#000000" points="172,-414 172,-436 305,-436 305,-414 172,-414"/>
<text text-anchor="start" x="177" y="-422" font-family="Times,serif" font-size="10.00" fill="#000000">shopify_handle: STRING</text>
<polygon fill="none" stroke="#000000" points="172,-392 172,-414 305,-414 305,-392 172,-392"/>
<text text-anchor="start" x="176.703" y="-400" font-family="Times,serif" font-size="10.00" fill="#000000">shopify_variant_id: NUMBER</text>
<polygon fill="none" stroke="#000000" points="172,-370 172,-392 305,-392 305,-370 172,-370"/>
<text text-anchor="start" x="177" y="-378" font-family="Times,serif" font-size="10.00" fill="#000000">shopify_price: NUMBER</text>
<polygon fill="none" stroke="#000000" points="172,-348 172,-370 305,-370 305,-348 172,-348"/>
<text text-anchor="start" x="177" y="-356" font-family="Times,serif" font-size="10.00" fill="#000000">available: BOOLEAN</text>
<polygon fill="none" stroke="#000000" points="172,-326 172,-348 305,-348 305,-326 172,-326"/>
<text text-anchor="start" x="177" y="-334" font-family="Times,serif" font-size="10.00" fill="#000000">createdAt: DATE</text>
<polygon fill="none" stroke="#000000" points="172,-304 172,-326 305,-326 305,-304 172,-304"/>
<text text-anchor="start" x="177" y="-312" font-family="Times,serif" font-size="10.00" fill="#000000">updatedAt: DATE</text>
</g>
<!-- Subscriber -->
<g id="node5" class="node">
<title>Subscriber</title>
<polygon fill="#add8e6" stroke="transparent" points="0,-509 0,-531 142,-531 142,-509 0,-509"/>
<polygon fill="none" stroke="#000000" points="0,-509 0,-531 142,-531 142,-509 0,-509"/>
<text text-anchor="start" x="49.6185" y="-517" font-family="Times,serif" font-size="10.00" fill="#000000">Subscriber</text>
<polygon fill="none" stroke="#000000" points="0,-487 0,-509 142,-509 142,-487 0,-487"/>
<text text-anchor="start" x="5" y="-495" font-family="Times,serif" font-size="10.00" fill="#000000">id: NUMBER</text>
<polygon fill="none" stroke="#000000" points="0,-465 0,-487 142,-487 142,-465 0,-465"/>
<text text-anchor="start" x="4.7585" y="-473" font-family="Times,serif" font-size="10.00" fill="#000000">shopify_customer_id: NUMBER</text>
<polygon fill="none" stroke="#000000" points="0,-443 0,-465 142,-465 142,-443 0,-443"/>
<text text-anchor="start" x="5" y="-451" font-family="Times,serif" font-size="10.00" fill="#000000">uid: UUID</text>
<polygon fill="none" stroke="#000000" points="0,-421 0,-443 142,-443 142,-421 0,-421"/>
<text text-anchor="start" x="5" y="-429" font-family="Times,serif" font-size="10.00" fill="#000000">createdAt: DATE</text>
<polygon fill="none" stroke="#000000" points="0,-399 0,-421 142,-421 142,-399 0,-399"/>
<text text-anchor="start" x="5" y="-407" font-family="Times,serif" font-size="10.00" fill="#000000">updatedAt: DATE</text>
</g>
<!-- Subscription -->
<g id="node6" class="node">
<title>Subscription</title>
<polygon fill="#add8e6" stroke="transparent" points="418,-477 418,-499 554,-499 554,-477 418,-477"/>
<polygon fill="none" stroke="#000000" points="418,-477 418,-499 554,-499 554,-477 418,-477"/>
<text text-anchor="start" x="460.7235" y="-485" font-family="Times,serif" font-size="10.00" fill="#000000">Subscription</text>
<polygon fill="none" stroke="#000000" points="418,-455 418,-477 554,-477 554,-455 418,-455"/>
<text text-anchor="start" x="423" y="-463" font-family="Times,serif" font-size="10.00" fill="#000000">id: NUMBER</text>
<polygon fill="none" stroke="#000000" points="418,-433 418,-455 554,-455 554,-433 418,-433"/>
<text text-anchor="start" x="423" y="-441" font-family="Times,serif" font-size="10.00" fill="#000000">uid: UUID</text>
<polygon fill="none" stroke="#000000" points="418,-411 418,-433 554,-433 554,-411 418,-411"/>
<text text-anchor="start" x="422.812" y="-419" font-family="Times,serif" font-size="10.00" fill="#000000">shopify_product_id: NUMBER</text>
<polygon fill="none" stroke="#000000" points="418,-389 418,-411 554,-411 554,-389 418,-389"/>
<text text-anchor="start" x="423" y="-397" font-family="Times,serif" font-size="10.00" fill="#000000">current_cart: JSON</text>
<polygon fill="none" stroke="#000000" points="418,-367 418,-389 554,-389 554,-367 418,-367"/>
<text text-anchor="start" x="423" y="-375" font-family="Times,serif" font-size="10.00" fill="#000000">last_cart: JSON</text>
<polygon fill="none" stroke="#000000" points="418,-345 418,-367 554,-367 554,-345 418,-345"/>
<text text-anchor="start" x="423" y="-353" font-family="Times,serif" font-size="10.00" fill="#000000">createdAt: DATE</text>
<polygon fill="none" stroke="#000000" points="418,-323 418,-345 554,-345 554,-323 418,-323"/>
<text text-anchor="start" x="423" y="-331" font-family="Times,serif" font-size="10.00" fill="#000000">updatedAt: DATE</text>
</g>
<!-- SubscriptionType -->
<g id="node7" class="node">
<title>SubscriptionType</title>
<polygon fill="#add8e6" stroke="transparent" points="0,-284 0,-306 136,-306 136,-284 0,-284"/>
<polygon fill="none" stroke="#000000" points="0,-284 0,-306 136,-306 136,-284 0,-284"/>
<text text-anchor="start" x="32.4495" y="-292" font-family="Times,serif" font-size="10.00" fill="#000000">SubscriptionType</text>
<polygon fill="none" stroke="#000000" points="0,-262 0,-284 136,-284 136,-262 0,-262"/>
<text text-anchor="start" x="5" y="-270" font-family="Times,serif" font-size="10.00" fill="#000000">id: NUMBER</text>
<polygon fill="none" stroke="#000000" points="0,-240 0,-262 136,-262 136,-240 0,-240"/>
<text text-anchor="start" x="5" y="-248" font-family="Times,serif" font-size="10.00" fill="#000000">duration: NUMBER</text>
<polygon fill="none" stroke="#000000" points="0,-218 0,-240 136,-240 136,-218 0,-218"/>
<text text-anchor="start" x="5" y="-226" font-family="Times,serif" font-size="10.00" fill="#000000">frequency: NUMBER</text>
<polygon fill="none" stroke="#000000" points="0,-196 0,-218 136,-218 136,-196 0,-196"/>
<text text-anchor="start" x="4.812" y="-204" font-family="Times,serif" font-size="10.00" fill="#000000">shopify_product_id: NUMBER</text>
<polygon fill="none" stroke="#000000" points="0,-174 0,-196 136,-196 136,-174 0,-174"/>
<text text-anchor="start" x="5" y="-182" font-family="Times,serif" font-size="10.00" fill="#000000">createdAt: DATE</text>
<polygon fill="none" stroke="#000000" points="0,-152 0,-174 136,-174 136,-152 0,-152"/>
<text text-anchor="start" x="5" y="-160" font-family="Times,serif" font-size="10.00" fill="#000000">updatedAt: DATE</text>
</g>
</g>
</svg>
